<svg width="25" height="24" viewBox="0 0 25 24" fill="none" xmlns="http://www.w3.org/2000/svg">
<path d="M21.0983 0H4.58153C3.6084 0.00106895 2.67544 0.390422 1.98734 1.08263C1.29924 1.77484 0.912195 2.71337 0.911133 3.69231V20.3077C0.912195 21.2866 1.29924 22.2252 1.98734 22.9174C2.67544 23.6096 3.6084 23.9989 4.58153 24H21.0983C22.0714 23.9989 23.0044 23.6096 23.6925 22.9174C24.3806 22.2252 24.7676 21.2866 24.7687 20.3077V3.69231C24.7676 2.71337 24.3806 1.77484 23.6925 1.08263C23.0044 0.390422 22.0714 0.00106895 21.0983 0ZM19.048 7.97827L11.3402 17.209C11.2557 17.3103 11.1505 17.3922 11.0317 17.449C10.913 17.5059 10.7835 17.5364 10.652 17.5385H10.6365C10.5079 17.5384 10.3807 17.5112 10.2633 17.4585C10.1458 17.4058 10.0407 17.3289 9.95464 17.2327L6.65129 13.5404C6.56739 13.4509 6.50213 13.3454 6.45934 13.2301C6.41655 13.1149 6.39709 12.9922 6.4021 12.8693C6.40712 12.7464 6.43651 12.6257 6.48855 12.5144C6.54058 12.403 6.61422 12.3033 6.70512 12.221C6.79603 12.1387 6.90236 12.0755 7.01789 12.0352C7.13341 11.9948 7.25579 11.9781 7.37783 11.986C7.49987 11.9939 7.61911 12.0262 7.72855 12.0812C7.83798 12.1361 7.93539 12.2124 8.01507 12.3058L10.6124 15.2088L17.643 6.79096C17.8007 6.60755 18.0238 6.49393 18.2641 6.47466C18.5044 6.4554 18.7426 6.53204 18.9272 6.68802C19.1118 6.844 19.2279 7.06678 19.2505 7.30822C19.2732 7.54966 19.2004 7.79035 19.048 7.97827Z" fill="#68D585"/>
</svg>
