<svg width="157" height="44" viewBox="0 0 157 44" fill="none" xmlns="http://www.w3.org/2000/svg">
<path d="M147.614 17.2302V20.672H144.542V36.6919H140.318V26.8359L141.182 28.6194C140.84 28.0145 140.435 27.493 139.966 27.0549C139.496 26.6169 138.963 26.3979 138.366 26.3979C138.152 26.3979 137.907 26.45 137.63 26.5543C137.374 26.6586 137.15 26.8568 136.958 27.1488C136.787 27.4408 136.702 27.8684 136.702 28.4316C136.702 28.6194 136.712 28.7967 136.734 28.9636C136.755 29.1096 136.776 29.266 136.798 29.4329L133.182 29.6519C133.075 28.9636 132.862 28.3691 132.542 27.8684C132.243 27.347 131.859 26.9506 131.39 26.6795C130.92 26.4083 130.355 26.2727 129.694 26.2727C129.31 26.2727 128.968 26.3457 128.67 26.4917C128.371 26.6169 128.136 26.8046 127.966 27.0549C127.816 27.3052 127.742 27.5973 127.742 27.931C127.742 28.682 128.04 29.266 128.638 29.6832C129.256 30.1004 130.003 30.4446 130.878 30.7157L129.662 34.2201C128.382 33.8655 127.272 33.3962 126.334 32.8121C125.395 32.2072 124.67 31.4875 124.158 30.6532C123.646 29.8188 123.39 28.8593 123.39 27.7746C123.39 26.7316 123.646 25.8347 124.158 25.0837C124.691 24.3328 125.395 23.7592 126.27 23.3628C127.144 22.9457 128.104 22.7371 129.15 22.7371C130.408 22.7371 131.464 22.9457 132.318 23.3628C133.171 23.7592 134.056 24.4162 134.974 25.334L134.398 25.115C134.632 24.385 135.048 23.8322 135.646 23.4567C136.243 23.0812 136.872 22.8935 137.534 22.8935C138.28 22.8935 138.942 23.0395 139.518 23.3316C140.115 23.6236 140.67 24.0199 141.182 24.5205L140.478 25.0212C140.435 24.5623 140.392 24.1034 140.35 23.6444C140.328 23.1855 140.318 22.7266 140.318 22.2677V20.672H122.142V17.2302H147.614Z" fill="#FF9838"/>
<path d="M123.985 17.2302V20.672H120.913V36.6919H116.689C115.899 35.5655 114.939 34.5747 113.809 33.7195C112.699 32.8642 111.462 32.155 110.097 31.5918C108.731 31.0078 107.249 30.5906 105.649 30.3403L104.049 26.6482C106.011 25.5844 108.155 24.5623 110.481 23.5819C112.827 22.5806 115.131 21.788 117.393 21.2039L116.817 22.2364V20.672H103.217V17.2302H123.985ZM116.689 24.2076L117.361 24.896C115.953 25.2923 114.619 25.7512 113.361 26.2727C112.123 26.7733 110.811 27.347 109.425 27.9936C110.299 28.1605 111.206 28.4525 112.145 28.8697C113.105 29.266 114.033 29.7875 114.929 30.4341C115.846 31.0808 116.667 31.8317 117.393 32.6869L116.785 33.0311C116.763 32.5514 116.742 32.0716 116.721 31.5918C116.699 31.1121 116.689 30.6427 116.689 30.1838V24.2076Z" fill="#FF9838"/>
<path d="M105.066 17.2302V20.672H101.994V36.6919H97.7698V20.672H94.6978V17.2302H97.8018C97.4604 16.8548 97.0871 16.4271 96.6818 15.9474C96.2978 15.4676 95.9564 15.0296 95.6578 14.6332C96.7244 12.9436 97.7698 11.6191 98.7938 10.6596C99.8391 9.70003 100.938 9.0221 102.09 8.62578C103.242 8.20859 104.511 8 105.898 8C106.922 8 107.892 8.08344 108.81 8.25031C109.748 8.41719 110.719 8.70922 111.722 9.1264C112.746 9.52273 113.876 10.0651 115.114 10.7534C116.351 11.4209 117.791 12.2553 119.434 13.2565L117.258 16.0412C115.53 14.9566 114.058 14.0805 112.842 13.413C111.626 12.7246 110.516 12.224 109.514 11.9111C108.511 11.5982 107.455 11.4418 106.346 11.4418C105.343 11.4418 104.468 11.6295 103.722 12.005C102.975 12.3804 102.324 12.8498 101.77 13.413C101.236 13.9762 100.767 14.5602 100.362 15.1652C100.554 15.4989 100.778 15.8535 101.034 16.229C101.29 16.6044 101.556 16.9382 101.834 17.2302H105.066Z" fill="#FF9838"/>
<path d="M96.5447 17.23V20.6718H84.0647V29.8395C84.0647 30.5487 84.1074 31.0701 84.1927 31.4039C84.278 31.7376 84.406 31.988 84.5767 32.1548C84.8754 32.4677 85.366 32.6242 86.0487 32.6242C86.6247 32.6242 87.1794 32.5094 87.7127 32.28C88.246 32.0297 88.79 31.6438 89.3447 31.1223C89.814 30.7051 90.1767 30.2566 90.4327 29.7769C90.6887 29.2971 90.8167 28.8069 90.8167 28.3063C90.8167 27.91 90.6887 27.5867 90.4327 27.3363C90.1767 27.086 89.7607 26.9609 89.1847 26.9609C88.9074 26.9609 88.6514 26.9713 88.4167 26.9922C88.2034 27.013 88.0007 27.0443 87.8087 27.086L87.2327 23.7068C87.702 23.6025 88.1714 23.5191 88.6407 23.4565C89.11 23.3939 89.654 23.3627 90.2727 23.3627C91.4034 23.3627 92.31 23.5504 92.9927 23.9259C93.6754 24.3013 94.1767 24.8019 94.4967 25.4277C94.8167 26.0535 94.9767 26.7627 94.9767 27.5554C94.9767 28.7026 94.7314 29.7769 94.2407 30.7781C93.75 31.7585 93.0994 32.645 92.2887 33.4377C91.4354 34.2512 90.454 34.8978 89.3447 35.3776C88.2354 35.8365 87.0514 36.0659 85.7927 36.0659C84.6407 36.0659 83.7447 35.9616 83.1047 35.7531C82.4647 35.5445 81.9207 35.242 81.4727 34.8457C81.0247 34.4702 80.6407 33.9174 80.3207 33.1874C80.0007 32.4573 79.8407 31.3309 79.8407 29.8082V20.6718H76.9287V17.23H96.5447ZM89.4087 17.23C89.3874 16.5834 89.2167 16.1245 88.8967 15.8533C88.5767 15.5613 88.0114 15.4153 87.2007 15.4153H84.8007C83.1794 15.4153 81.8567 15.2693 80.8327 14.9772C79.83 14.6643 79.0407 14.195 78.4647 13.5692C78.0594 13.1312 77.7607 12.6201 77.5687 12.0361C77.398 11.4312 77.3127 10.7428 77.3127 9.97101C77.3127 9.65812 77.3234 9.37652 77.3447 9.12621C77.366 8.85504 77.4087 8.53172 77.4727 8.15625L81.4727 8.40656C81.4514 8.5943 81.43 8.76117 81.4087 8.90718C81.4087 9.0532 81.4087 9.18878 81.4087 9.31394C81.4087 9.75198 81.4514 10.1483 81.5367 10.5029C81.6434 10.8367 81.814 11.1183 82.0487 11.3477C82.2834 11.5563 82.582 11.7128 82.9447 11.8171C83.3074 11.9213 83.894 11.9735 84.7047 11.9735H87.2327C88.4914 11.9735 89.4834 12.0674 90.2087 12.2551C90.9554 12.4428 91.5847 12.7766 92.0967 13.2563C92.502 13.6527 92.8114 14.1741 93.0247 14.8208C93.2594 15.4466 93.3874 16.2496 93.4087 17.23H89.4087Z" fill="#FF9838"/>
<path d="M78.7559 17.2302V20.672H76.9319C76.2066 21.0266 75.5026 21.4647 74.82 21.9861C74.1586 22.4868 73.5613 23.0708 73.0279 23.7383C72.5159 24.385 72.0999 25.1046 71.7799 25.8972C71.4813 26.6899 71.3319 27.5451 71.3319 28.4629C71.3319 29.7145 71.5239 30.6949 71.9079 31.4041C72.2919 32.1133 72.772 32.6139 73.3479 32.906C73.924 33.1771 74.4999 33.3127 75.0759 33.3127C75.4599 33.3127 75.8333 33.2814 76.1959 33.2188C76.5586 33.1354 76.9746 32.979 77.4439 32.7495L79.0439 35.8471C78.3399 36.2434 77.6466 36.5146 76.9639 36.6606C76.2813 36.7858 75.5666 36.8484 74.82 36.8484C73.2413 36.8484 71.8653 36.5355 70.6919 35.9097C69.5186 35.2631 68.6119 34.3244 67.9719 33.0937C67.3533 31.8421 67.0439 30.3298 67.0439 28.5568C67.0439 27.2844 67.2466 26.0745 67.6519 24.9273C68.0573 23.7592 68.6119 22.6849 69.3159 21.7045C70.0413 20.7242 70.8839 19.8585 71.8439 19.1076C72.8039 18.3358 73.8386 17.71 74.9479 17.2302H78.7559Z" fill="#FF9838"/>
<path d="M62.3718 17.2302V20.672H59.2998V36.6919H55.0758V32.6244L55.6198 34.2827C54.8305 33.2188 54.0731 32.3115 53.3478 31.5605C52.6225 30.7887 51.8971 30.2047 51.1718 29.8084C50.4465 29.3912 49.6785 29.1826 48.8678 29.1826C48.3771 29.1826 47.9505 29.3077 47.5878 29.558C47.2251 29.8084 47.0438 30.1838 47.0438 30.6844C47.0438 31.2268 47.2465 31.6544 47.6518 31.9673C48.0785 32.2593 48.6545 32.5305 49.3798 32.7808L48.1638 36.379C46.8838 36.0244 45.8385 35.5447 45.0278 34.9397C44.2385 34.314 43.6518 33.6256 43.2678 32.8747C42.8838 32.1237 42.6918 31.3519 42.6918 30.5593C42.6918 29.4538 42.9585 28.5464 43.4918 27.8372C44.0251 27.1279 44.7078 26.6065 45.5398 26.2727C46.3931 25.939 47.2678 25.7721 48.1638 25.7721C49.2091 25.7721 50.1691 25.9077 51.0438 26.1788C51.9398 26.45 52.7718 26.8776 53.5398 27.4617C54.3078 28.0249 55.0545 28.7654 55.7798 29.6832L55.1398 30.1525C55.1185 29.6519 55.0971 29.1513 55.0758 28.6507C55.0758 28.1292 55.0758 27.6181 55.0758 27.1175V20.672H41.0918V17.2302H62.3718ZM51.6838 26.6482C51.6838 26.7525 51.6731 26.9089 51.6518 27.1175C51.6518 27.3052 51.6305 27.493 51.5878 27.6807L47.4598 26.6482C47.4171 25.6678 47.2358 24.896 46.9158 24.3328C46.5958 23.7696 46.0625 23.342 45.3158 23.05C44.5691 22.7579 43.5025 22.5493 42.1158 22.4242L42.9478 19.264L44.7398 19.7646C46.0198 19.9106 47.0971 20.161 47.9718 20.5156C48.8678 20.8702 49.5825 21.3291 50.1158 21.8923C50.6705 22.4346 51.0651 23.1021 51.2998 23.8948C51.5558 24.6874 51.6838 25.6052 51.6838 26.6482Z" fill="#FF9838"/>
<path d="M35.6295 36.6918V24.0824L36.4295 25.4278C35.9602 24.8229 35.4482 24.2284 34.8935 23.6443C34.3602 23.0603 33.7842 22.5284 33.1655 22.0486C32.5682 21.5688 31.9175 21.1829 31.2135 20.8909C30.5309 20.5989 29.7949 20.4529 29.0055 20.4529C28.0029 20.4529 27.2029 20.6719 26.6055 21.1099C26.0082 21.548 25.4322 22.0486 24.8775 22.6118L24.4935 22.5492C24.9202 22.278 25.4002 22.059 25.9335 21.8922C26.4669 21.7044 27.1282 21.6106 27.9175 21.6106C28.8775 21.6106 29.6775 21.7879 30.3175 22.1425C30.9789 22.4971 31.4802 22.9768 31.8215 23.5817C32.1629 24.1658 32.3335 24.8229 32.3335 25.553C32.3335 26.8045 31.8642 27.9518 30.9255 28.9947C30.0082 30.0377 28.6002 31.0807 26.7015 32.1236L24.2695 28.7757C25.5069 28.2334 26.4882 27.7015 27.2135 27.18C27.9602 26.6585 28.3335 26.1057 28.3335 25.5217C28.3335 25.1671 28.2162 24.8959 27.9815 24.7082C27.7682 24.4996 27.3949 24.3953 26.8615 24.3953C26.4349 24.3953 25.9975 24.4578 25.5495 24.583C25.1015 24.7082 24.6002 24.9167 24.0455 25.2088L20.6855 22.5805C21.4322 21.5167 22.2109 20.5676 23.0215 19.7332C23.8535 18.8988 24.7495 18.2418 25.7095 17.762C26.6695 17.2614 27.7149 17.0111 28.8455 17.0111C29.8695 17.0111 30.8189 17.1884 31.6935 17.543C32.5895 17.8976 33.4749 18.4191 34.3495 19.1074C35.2242 19.7749 36.1629 20.5989 37.1655 21.5793L35.7575 21.2038C35.7575 20.9535 35.7362 20.5989 35.6935 20.14C35.6509 19.6602 35.6295 19.0761 35.6295 18.3878V15.165H39.1175L39.8215 17.2301H42.9255V20.6719H39.8535V36.6918H35.6295Z" fill="#FF9838"/>
<path d="M21.712 17.2302V20.672H19.888C19.1627 21.0266 18.4587 21.4647 17.776 21.9861C17.1147 22.4868 16.5173 23.0708 15.984 23.7383C15.472 24.385 15.056 25.1046 14.736 25.8972C14.4373 26.6899 14.288 27.5451 14.288 28.4629C14.288 29.7145 14.48 30.6949 14.864 31.4041C15.248 32.1133 15.728 32.6139 16.304 32.906C16.88 33.1771 17.456 33.3127 18.032 33.3127C18.416 33.3127 18.7893 33.2814 19.152 33.2188C19.5147 33.1354 19.9307 32.979 20.4 32.7495L22 35.8471C21.296 36.2434 20.6027 36.5146 19.92 36.6606C19.2373 36.7858 18.5227 36.8484 17.776 36.8484C16.1973 36.8484 14.8213 36.5355 13.648 35.9097C12.4747 35.2631 11.568 34.3244 10.928 33.0937C10.3093 31.8421 10 30.3298 10 28.5568C10 27.2844 10.2027 26.0745 10.608 24.9273C11.0133 23.7592 11.568 22.6849 12.272 21.7045C12.9973 20.7242 13.84 19.8585 14.8 19.1076C15.76 18.3358 16.7947 17.71 17.904 17.2302H21.712Z" fill="#FF9838"/>
<rect x="2" y="2" width="153" height="40" stroke="#FF9838" stroke-width="4"/>
</svg>
